<svg width="976" height="1012" viewBox="0 0 976 1012" fill="none" xmlns="http://www.w3.org/2000/svg">
<g clip-path="url(#clip0_93_2)">
<g filter="url(#filter0_d_93_2)">
<path d="M488 852C681.3 852 838 695.3 838 502C838 308.7 681.3 152 488 152C294.7 152 138 308.7 138 502C138 695.3 294.7 852 488 852Z" fill="url(#paint0_radial_93_2)"/>
<path d="M488 864.5C688.203 864.5 850.5 702.203 850.5 502C850.5 301.797 688.203 139.5 488 139.5C287.797 139.5 125.5 301.797 125.5 502C125.5 702.203 287.797 864.5 488 864.5Z" stroke="#FF7A00" stroke-width="25"/>
</g>
<path d="M488 859.5C685.442 859.5 845.5 699.442 845.5 502C845.5 304.558 685.442 144.5 488 144.5C290.558 144.5 130.5 304.558 130.5 502C130.5 699.442 290.558 859.5 488 859.5Z" stroke="#FFE600" stroke-width="15"/>
</g>
<defs>
<filter id="filter0_d_93_2" x="-37" y="-19" width="1050" height="1050" filterUnits="userSpaceOnUse" color-interpolation-filters="sRGB">
<feFlood flood-opacity="0" result="BackgroundImageFix"/>
<feColorMatrix in="SourceAlpha" type="matrix" values="0 0 0 0 0 0 0 0 0 0 0 0 0 0 0 0 0 0 127 0" result="hardAlpha"/>
<feOffset dy="4"/>
<feGaussianBlur stdDeviation="75"/>
<feComposite in2="hardAlpha" operator="out"/>
<feColorMatrix type="matrix" values="0 0 0 0 1 0 0 0 0 0 0 0 0 0 0.06 0 0 0 1 0"/>
<feBlend mode="normal" in2="BackgroundImageFix" result="effect1_dropShadow_93_2"/>
<feBlend mode="normal" in="SourceGraphic" in2="effect1_dropShadow_93_2" result="shape"/>
</filter>
<radialGradient id="paint0_radial_93_2" cx="0" cy="0" r="1" gradientUnits="userSpaceOnUse" gradientTransform="translate(488 502) rotate(90) scale(350)">
<stop offset="0.729167" stop-color="#FFE071"/>
<stop offset="1" stop-color="#FFF9F7"/>
</radialGradient>
<clipPath id="clip0_93_2">
<rect width="976" height="1012" fill="white"/>
</clipPath>
</defs>
</svg>
